# xmcd
#
# Track frame offsets:
#	150
#	10826
#	21927
#	32697
#	45693
#	58929
#	71242
#	97114
#	100119
#	111363
#
# Disc length: 1629 seconds
#
# Revision: 1
# Processed by: cddbd v1.5.2PL0 Copyright (c) Steve Scherf et al.
# Submitted via: audiograbber 1.83.01
#
DISCID=89065b0a
DTITLE=The Random Players - The Random Players
DYEAR=2003
DGENRE=
TTITLE0=Bullfrog Blues
TTITLE1=Something else
TTITLE2=Rip it up
TTITLE3=The rumble
TTITLE4=One's too many
TTITLE5=Drive my car
TTITLE6=I can't quit you baby
TTITLE7=Que sera
TTITLE8=Hound dog
TTITLE9=Extra Jimmies
EXTD=
EXTT0=
EXTT1=
EXTT2=
EXTT3=
EXTT4=
EXTT5=
EXTT6=
EXTT7=
EXTT8=
EXTT9=
PLAYORDER=
